<svg id="Layer_1" data-name="Layer 1" xmlns="http://www.w3.org/2000/svg" xmlns:xlink="http://www.w3.org/1999/xlink" viewBox="0 0 815 838.03"><defs><style>.cls-1{fill:none;}.cls-2{fill:#e7dddb;}.cls-3{clip-path:url(#clip-path);}.cls-4{fill:#845a32;}.cls-5{fill:#8d1400;}.cls-6{fill:#ffac25;}.cls-7{fill:url(#linear-gradient);}.cls-8{fill:url(#linear-gradient-2);}.cls-9{fill:url(#linear-gradient-3);}.cls-10{fill:url(#linear-gradient-4);}.cls-11{fill:url(#linear-gradient-5);}.cls-12{fill:url(#linear-gradient-6);}.cls-13{fill:url(#linear-gradient-7);}.cls-14{fill:url(#linear-gradient-8);}.cls-15{fill:#505050;}</style><clipPath id="clip-path" transform="translate(-98 -107)"><circle class="cls-1" cx="505.5" cy="514.5" r="407.5"/></clipPath><linearGradient id="linear-gradient" x1="487.12" y1="690.43" x2="487.12" y2="443.76" gradientUnits="userSpaceOnUse"><stop offset="0.15" stop-color="#ffac25"/><stop offset="1" stop-color="#f17215"/></linearGradient><linearGradient id="linear-gradient-2" x1="521.75" y1="427.89" x2="573.27" y2="427.89" xlink:href="#linear-gradient"/><linearGradient id="linear-gradient-3" x1="573.11" y1="414.4" x2="610.65" y2="414.4" xlink:href="#linear-gradient"/><linearGradient id="linear-gradient-4" x1="538.7" y1="401.4" x2="580.26" y2="401.4" xlink:href="#linear-gradient"/><linearGradient id="linear-gradient-5" x1="512.97" y1="416.74" x2="512.97" y2="402.4" gradientTransform="translate(859.4 -148) rotate(83.25)" xlink:href="#linear-gradient"/><linearGradient id="linear-gradient-6" x1="466.24" y1="401.72" x2="495.1" y2="401.72" gradientUnits="userSpaceOnUse"><stop offset="0" stop-color="#f17215"/><stop offset="0.85" stop-color="#ffac25"/></linearGradient><linearGradient id="linear-gradient-7" x1="428.24" y1="410.37" x2="483.81" y2="410.37" xlink:href="#linear-gradient-6"/><linearGradient id="linear-gradient-8" x1="431.15" y1="430.17" x2="459.29" y2="430.17" xlink:href="#linear-gradient-6"/></defs><title>icon</title><circle class="cls-2" cx="407.5" cy="407.5" r="407.5"/><g class="cls-3"><path class="cls-4" d="M147,945H864c-7.65-11.25-42.51-80.31-51.59-92.11-13.4-17.43-26.79-33.22-39.79-47.44L645.51,698.54,606.82,606.8l-49.74-64.11L451,530.53l-61.9,29.84L336,648.8,291.8,718.43,265.27,756l-25.69,17.14a393.56,393.56,0,0,0-40.07,58.3C188.12,851.71,153.22,928.28,147,945Z" transform="translate(-98 -107)"/></g><path class="cls-5" d="M446.77,443.09l-14.31,30,35.92,37.86,93.4,3.59,2.35-38.13c-1.59-2.89-4.78-8.81-8.83-8.63a19.73,19.73,0,0,0-4,1c-2.18.57-5,1.84-7.29,1.38-3.13-.71-4.7-4.92-5.32-7a12.8,12.8,0,0,0-5.07-5.26c-1.16-.62-2.89-1.29-8.68-1.37a157,157,0,0,0-35,3.87c-9.7,2.09-11.17,3.37-15.06,2.35-7.52-2-9-8.63-20.77-15.8A59.47,59.47,0,0,0,446.77,443.09Z" transform="translate(-98 -107)"/><path class="cls-6" d="M553.21,722.85c2.27-1.33,7.3,10.59,23.95,24.41,4.75,4,20.41,16.49,30.15,28a41.31,41.31,0,0,1,6.14,9.39c.47,1,2.32,5,3.78,13.22,1.27,7.1.78,9.07,1.57,14.83a76.6,76.6,0,0,0,4.6,17,114.15,114.15,0,0,0,18.06,31.69,128.24,128.24,0,0,1-16.54-6.59c-10.8-5.19-23.55-11.33-32.56-23.9-5.7-8-7.7-15.42-9.5-22.11-4.41-16.43-1.12-24-6.43-38.41a63.8,63.8,0,0,0-9.12-16.48c-4.37-6.3-6.31-7.44-9.21-12.72C554.09,733.9,551.19,724.05,553.21,722.85Z" transform="translate(-98 -107)"/><path class="cls-7" d="M446.55,443.76a258.66,258.66,0,0,0-34.46,38.88c-13.46,18.66-20.79,34.13-27.26,47.7-13.42,28.19-27.82,58.1-46,95.66l49.83-61.58,23.22-15.84,6.26,21-9.4,28.1L399,641.43l14,49,5.9-5.16c6.54-19.78,10.76-36.21,13.44-47.89,3.88-16.86,5.4-27.33,12.72-40.53a94.4,94.4,0,0,1,18.19-23.21,18.67,18.67,0,0,1,5.75-3.78c2.1-.87,6.61-2.76,11.43-.83,5.62,2.26,7.44,8,7.69,8.89.18,8.61.73,17.77,1.79,27.4q.68,6,1.52,11.7c1.55.63,3.25,1.24,5.12,1.8a56,56,0,0,0,7.32,1.65c1.47-2.24,3.12-4.55,5-6.9a103,103,0,0,1,13.27-14,45.75,45.75,0,0,1,3.45-26.71,45,45,0,0,1,12.71-16.21c12.6,3.76,20.35,9.22,24.5,12.71A142.14,142.14,0,0,1,575.41,582c2.54,2.83,4.56,5.3,6,7.09a100.74,100.74,0,0,1,14,11.19,117.24,117.24,0,0,1,9.95,11.05c7.2,8.94,8.68,12.77,13.82,19.76a111.48,111.48,0,0,0,16.26,17.69,201.84,201.84,0,0,0-10.87-24.6c-7.09-13.51-12.45-19.94-20.18-31.91-9.14-14.16-16-24.78-21.55-39.38-7.48-19.68-12.39-46.08-13.26-55.4a66.45,66.45,0,0,0-4.1-18c-.54-1.42-1-2.53-1.29-3.13-.46.65-9.26,13-19.21,13.08a30.42,30.42,0,0,1-7.53-1.06c-3.34-1-4.76-2.08-7.8-3.46-.72-.32-6.61-3-11-3.22A16.56,16.56,0,0,0,508.4,485c-2.62,1.78-4.72,5.2-7.65,6.3-1.87.7-5.87.28-6.95-1.78a16.78,16.78,0,0,0-6.54-7c-4.91-2.74-9.27-1.31-15.66-1.29-1.72,0-14.85-.08-21.37-5.53C440.3,467.32,445.79,446.51,446.55,443.76Z" transform="translate(-98 -107)"/><path class="cls-6" d="M533.87,674.4a89.09,89.09,0,0,1-33.75-34.06A85.85,85.85,0,0,1,491.45,617a47.67,47.67,0,0,0,5.88,2.09c1.47.42,2.88.74,4.19,1a3.53,3.53,0,0,0,3.62-1.48,104.3,104.3,0,0,1,7.75-9.86,102.3,102.3,0,0,1,9.24-9.14q1.35,12.95,3.27,26.53C527.8,643.08,530.68,659.18,533.87,674.4Z" transform="translate(-98 -107)"/><path class="cls-6" d="M581.4,589.11A132.87,132.87,0,0,1,594,610.89c2.49,5.49,3.41,8.54,9.83,26.3,2.1,5.81,4.24,11.61,6.36,17.41,11.76,32.29,17.64,48.43,29,63.28C651.69,734.25,666,743.23,678.53,751c16.19,10.13,23.84,11.43,41,19.9a265.54,265.54,0,0,1,54.71,36.2,519,519,0,0,0-40.07-42.7c-12.59-12-26.4-23.85-56.09-51.53-10.68-10-16.72-15.71-23.49-25.15a135.25,135.25,0,0,1-19.25-39,116.64,116.64,0,0,1-10-9.94c-9.78-11-10.22-15.63-21.24-28.92A106,106,0,0,0,590,595.51,98.06,98.06,0,0,0,581.4,589.11Z" transform="translate(-98 -107)"/><path class="cls-6" d="M370.28,784a336,336,0,0,0,48.64-98.75,122.8,122.8,0,0,1-12.44-44.07C403.64,608.28,415,583,420.85,572a49.25,49.25,0,0,0,0-28.74c-.11-.31-2-5.22-7.18-6.36a10.33,10.33,0,0,0-8.57,2.21,115.43,115.43,0,0,0-45,54.16l-22.8,35.24c-19.92,42-35.12,64.61-44,76.31-8,10.56-14.6,18.88-14.6,18.88C267,738.41,261.28,744.73,251,758.23c-4.57,6-8.16,11-10.36,14.09a35.93,35.93,0,0,0,14-.37,37.16,37.16,0,0,0,19.44-11.79,216.09,216.09,0,0,0,30.39-40.9c6.52-11.36,6.67-14,15.07-29.37,6.47-11.81,11.27-19.15,27.9-44.27,12.81-19.34,23-34.74,29.43-44.35,1.71-2.23,4.29-5.61,7.37-9.77,6-8,7.33-10.19,9.49-12.89a69.45,69.45,0,0,1,17-15.06,65.68,65.68,0,0,1-1.06,27c-2.37,9.13-5.7,13.13-9.57,24.69A117.5,117.5,0,0,0,395,637.74c.35,5.49.6,12.59.32,20.87a194.51,194.51,0,0,1-2.76,27.77c-2,10.91-3.44,11.62-12.25,38.39-7.62,23.17-8.91,29.85-9.63,36A116.15,116.15,0,0,0,370.28,784Z" transform="translate(-98 -107)"/><path class="cls-8" d="M521.75,434.17A90.14,90.14,0,0,1,563,419.73c5.19-.9,9.84,2.83,10.26,7.34.45,4.68-3.76,9.35-9.24,9.1a113.2,113.2,0,0,0-42.24-2Z" transform="translate(-98 -107)"/><path class="cls-9" d="M573.11,411.65a65.23,65.23,0,0,1,28.56,8.67,6.06,6.06,0,1,0,5.63-10.74,56.61,56.61,0,0,0-34.19,2.07Z" transform="translate(-98 -107)"/><path class="cls-10" d="M538.7,413.2a101.93,101.93,0,0,1,23.43-9.06,100.23,100.23,0,0,1,11.1-2.12c5.86-2.39,8-7.6,6.67-10.06-1.11-2.09-5.14-3.1-9.44-1.77a109.82,109.82,0,0,0-31.76,23Z" transform="translate(-98 -107)"/><ellipse class="cls-11" cx="512.97" cy="409.57" rx="7.16" ry="7.74" transform="translate(-52.06 763.84) rotate(-83.25)"/><path class="cls-12" d="M495.1,418a172.24,172.24,0,0,0-14-12.69c-4.14-3.37-8.18-6.33-12-8.94-3.57-2.87-3.51-7.72-1.36-9.71s6.88-1.7,9.51,2a86.87,86.87,0,0,1,10.42,13.85A87.86,87.86,0,0,1,495.1,418Z" transform="translate(-98 -107)"/><path class="cls-13" d="M483.81,424.83A187.65,187.65,0,0,0,434,411.56a8,8,0,1,1,5.53-15,81.34,81.34,0,0,1,44.24,28.29Z" transform="translate(-98 -107)"/><path class="cls-14" d="M459.29,428.6a94.65,94.65,0,0,0-11.57,2.53,93.09,93.09,0,0,0-9.87,3.42c-2.94.82-5.7-.23-6.45-1.88-.91-2,.7-5.68,4.7-6.81a49.66,49.66,0,0,1,11.69,0A50.45,50.45,0,0,1,459.29,428.6Z" transform="translate(-98 -107)"/><path class="cls-15" d="M510.08,368.2a14,14,0,0,0-14.55,3.47,12.85,12.85,0,0,0-1.08,1.33c-3.55,5-2.38,12.09,2.12,16.31l.56.5a17.1,17.1,0,0,0,4.54,2.79c5,2.08,10.87,1.85,15.07-1.58a12.66,12.66,0,0,0,2.07-2.12,13.62,13.62,0,0,0,2.8-8.39c1.3,1,11.24,8.23,24.3,5.06,13.32-3.23,18.82-14.59,19.48-16,11.89,5.27,25.37,2.76,33.33-5.9,8.76-9.52,6.86-22.13,6.59-23.79,3,0,42.66-.85,62.45-32.77,10.28-16.57,10.2-33.45,9.7-40.77-1.72-8.84-6-23-17.57-35.29-19.92-21-53.06-27.49-85.4-17.53a69.43,69.43,0,0,0-42.46,46c-20.09-.65-37.75,10.83-43.5,27.46-7.2,20.83,7.83,39.58,9.34,41.4a47.3,47.3,0,0,0,17.51,13.07,23.8,23.8,0,0,0-6.64,11.46A24.07,24.07,0,0,0,510.08,368.2Z" transform="translate(-98 -107)"/></svg>